<svg width="34" height="34" viewBox="0 0 34 34" fill="none" xmlns="http://www.w3.org/2000/svg">
<path d="M22.7914 9.08566C22.3033 8.45565 21.6392 7.98477 20.8831 7.73274L18.931 7.09807C18.7811 7.04473 18.6514 6.9463 18.5597 6.81631C18.468 6.68631 18.4187 6.53112 18.4187 6.37203C18.4187 6.21294 18.468 6.05775 18.5597 5.92776C18.6514 5.79777 18.7811 5.69934 18.931 5.64599L20.8831 5.01133C21.4608 4.81184 21.9854 4.48338 22.4172 4.05087C22.849 3.61836 23.1765 3.09317 23.375 2.51516L23.3906 2.46699L24.0253 0.516243C24.078 0.365387 24.1764 0.234666 24.3067 0.142175C24.4371 0.0496845 24.5929 0 24.7527 0C24.9126 0 25.0684 0.0496845 25.1988 0.142175C25.3291 0.234666 25.4274 0.365387 25.4802 0.516243L26.1135 2.46699C26.3114 3.05993 26.6448 3.59858 27.0872 4.04023C27.5296 4.48187 28.0688 4.81436 28.662 5.01133L30.6128 5.64599L30.6525 5.65591C30.8023 5.70926 30.932 5.80768 31.0237 5.93768C31.1154 6.06767 31.1647 6.22286 31.1647 6.38195C31.1647 6.54104 31.1154 6.69623 31.0237 6.82622C30.932 6.95622 30.8023 7.05464 30.6525 7.10799L28.7003 7.74266C28.1073 7.93981 27.5684 8.27238 27.1262 8.71402C26.6841 9.15565 26.3509 9.69421 26.1531 10.287L25.5185 12.2377L25.5 12.2859C25.4388 12.4285 25.336 12.5492 25.2051 12.6324C25.0741 12.7156 24.9211 12.7573 24.766 12.7521C24.611 12.7469 24.4611 12.695 24.336 12.6032C24.2109 12.5115 24.1165 12.3841 24.065 12.2377L23.4303 10.287C23.2885 9.85283 23.0729 9.44642 22.7928 9.08566M33.694 14.4704L32.6089 14.1191C32.2796 14.009 31.9804 13.8238 31.7351 13.5782C31.4897 13.3326 31.3048 13.0332 31.195 12.7038L30.8409 11.6215C30.8115 11.5378 30.7569 11.4653 30.6846 11.414C30.6123 11.3627 30.5258 11.3352 30.4371 11.3352C30.3484 11.3352 30.262 11.3627 30.1896 11.414C30.1173 11.4653 30.0627 11.5378 30.0334 11.6215L29.682 12.7038C29.5743 13.0311 29.3924 13.3291 29.1506 13.5746C28.9088 13.82 28.6136 14.0064 28.288 14.1191L27.2043 14.4704C27.1206 14.4997 27.0481 14.5543 26.9968 14.6267C26.9455 14.699 26.918 14.7855 26.918 14.8742C26.918 14.9628 26.9455 15.0493 26.9968 15.1216C27.0481 15.194 27.1206 15.2486 27.2043 15.2779L28.288 15.6307C28.6183 15.7408 28.9183 15.9265 29.1642 16.1729C29.4102 16.4193 29.5952 16.7197 29.7047 17.0502L30.056 18.1325C30.0854 18.2162 30.14 18.2887 30.2123 18.34C30.2846 18.3913 30.3711 18.4188 30.4598 18.4188C30.5485 18.4188 30.6349 18.3913 30.7073 18.34C30.7796 18.2887 30.8342 18.2162 30.8635 18.1325L31.2163 17.0502C31.3262 16.7206 31.5113 16.4212 31.7569 16.1755C32.0026 15.9299 32.302 15.7448 32.6315 15.6349L33.7153 15.2836C33.799 15.2542 33.8715 15.1996 33.9228 15.1273C33.9741 15.055 34.0016 14.9685 34.0016 14.8798C34.0016 14.7912 33.9741 14.7047 33.9228 14.6323C33.8715 14.56 33.799 14.5054 33.7153 14.4761L33.694 14.4704ZM17.102 5.66866H6.02087C5.1755 5.66866 4.36474 6.00448 3.76697 6.60226C3.1692 7.20003 2.83337 8.01078 2.83337 8.85616V25.1549C2.83337 26.0003 3.1692 26.811 3.76697 27.4088C4.36474 28.0066 5.1755 28.3424 6.02087 28.3424H27.9721C28.8175 28.3424 29.6283 28.0066 30.226 27.4088C30.8238 26.811 31.1596 26.0003 31.1596 25.1549V19.7404C30.8044 19.9032 30.4064 19.9478 30.0239 19.8677C29.6415 19.7877 29.2947 19.5872 29.0346 19.2956V25.1549C29.0346 25.4367 28.9227 25.707 28.7234 25.9062C28.5242 26.1055 28.2539 26.2174 27.9721 26.2174L24.0749 26.216V22.3145L24.0678 22.1119C24.0169 21.4916 23.7346 20.9131 23.2769 20.4913C22.8192 20.0695 22.2195 19.8354 21.5971 19.8353H12.3959L12.1919 19.8438C11.5718 19.895 10.9936 20.1775 10.5722 20.6352C10.1507 21.0929 9.91673 21.6923 9.91671 22.3145L9.91529 26.216H6.02087C5.73908 26.216 5.46883 26.104 5.26957 25.9048C5.07032 25.7055 4.95837 25.4353 4.95837 25.1535V8.85616C4.95837 8.57437 5.07032 8.30412 5.26957 8.10486C5.46883 7.9056 5.73908 7.79366 6.02087 7.79366H17.5285C17.4817 7.72896 17.4378 7.66232 17.3967 7.59391C17.2048 7.31638 17.0785 6.99881 17.0274 6.66525C16.9764 6.3317 17.0019 5.9909 17.102 5.66866ZM21.25 14.1687C21.25 13.0415 20.8023 11.9605 20.0052 11.1635C19.2082 10.3664 18.1272 9.91866 17 9.91866C15.8729 9.91866 14.7919 10.3664 13.9948 11.1635C13.1978 11.9605 12.75 13.0415 12.75 14.1687C12.75 15.2958 13.1978 16.3768 13.9948 17.1739C14.7919 17.9709 15.8729 18.4187 17 18.4187C18.1272 18.4187 19.2082 17.9709 20.0052 17.1739C20.8023 16.3768 21.25 15.2958 21.25 14.1687Z" fill="white"/>
</svg>
